# xmcd CD database file
#
# Track frame offsets:
#	150
#	33227
#	62617
#	93189
#	112796
#	147270
#	169350
#	191438
#	198640
#	209061
#	223189
#	268415
#
# Disc length: 3703 seconds
#
# Revision: 0
# Processed by: cddbd v1.5.2PL0 Copyright (c) Steve Scherf et al.
# Submitted via: CDex 1.70beta3
#
DISCID=ba0e750c
DTITLE=Thelonious Monk - Paris 1969
DYEAR=1969
DGENRE=Jazz
TTITLE0=I Mean You
TTITLE1=Ruby My Dear
TTITLE2=Straight, No Chaser
TTITLE3=Bright Mississippi
TTITLE4=Light Blue
TTITLE5=Epistrophy
TTITLE6=Don't Blame Me
TTITLE7=I Love You Sweetheart of All My Dreams
TTITLE8=Crepuscule with Nellie
TTITLE9=Bright Mississippi (Reprise)
TTITLE10=Nutty
TTITLE11=Blue Monk
EXTD=YEAR: 1969
EXTT0=
EXTT1=
EXTT2=
EXTT3=
EXTT4=
EXTT5=
EXTT6=
EXTT7=
EXTT8=
EXTT9=
EXTT10=
EXTT11=
PLAYORDER=
